<?xml version="1.0" encoding="UTF-8"?>
<svg version="1.1" xmlns="http://www.w3.org/2000/svg" width="1024" height="1024">
<path d="M0 0 C337.92 0 675.84 0 1024 0 C1024 337.92 1024 675.84 1024 1024 C686.08 1024 348.16 1024 0 1024 C0 686.08 0 348.16 0 0 Z " fill="#FEFEFE" transform="translate(0,0)"/>
<path d="M0 0 C337.92 0 675.84 0 1024 0 C1024 337.92 1024 675.84 1024 1024 C686.08 1024 348.16 1024 0 1024 C0 686.08 0 348.16 0 0 Z M146 149 C145.25878906 149.74121094 144.51757812 150.48242188 143.75390625 151.24609375 C127.26217067 168.76655358 119.81975789 191.69946743 119.87136555 215.36255074 C119.86961251 216.38567647 119.86785947 217.40880221 119.86605331 218.46293175 C119.86139706 221.89531482 119.86385787 225.32765545 119.86628723 228.76004028 C119.86441907 231.244222 119.86211835 233.72840342 119.85942191 236.21258438 C119.85457728 241.61592715 119.85284958 247.0192571 119.85387802 252.4226017 C119.85540367 260.45789823 119.85123956 268.49318486 119.8460034 276.52847947 C119.83633317 291.71576672 119.83351927 306.9030506 119.83294634 322.09034057 C119.83248673 333.82010388 119.83042807 345.54986587 119.82724571 357.27962875 C119.82634816 360.65648424 119.82545835 364.03333974 119.82457083 367.41019523 C119.82434979 368.24970468 119.82412874 369.08921413 119.82390099 369.95416326 C119.8177468 393.56810601 119.81380042 417.18204831 119.81424427 440.7959919 C119.81425985 441.68627545 119.81427543 442.576559 119.81429148 443.49382084 C119.81437459 448.00610197 119.81447363 452.51838309 119.81457619 457.03066422 C119.81459613 457.92681136 119.81461608 458.82295849 119.81463663 459.74626161 C119.81467706 461.55849016 119.81471886 463.37071871 119.81476202 465.18294727 C119.81537466 493.37327209 119.80787017 521.56358487 119.79418945 549.75390625 C119.77882356 581.42968941 119.77022355 613.10546467 119.77115268 644.78125179 C119.77122731 648.15999341 119.77127601 651.53873503 119.77130699 654.91747665 C119.77131865 655.74940047 119.7713303 656.58132428 119.77134231 657.43845791 C119.77137306 670.81741627 119.76499131 684.19636417 119.75637473 697.57531941 C119.74789122 711.0260411 119.74691376 724.47674752 119.75348405 737.9274704 C119.75717513 745.91412346 119.75536057 753.90073007 119.74554171 761.8873782 C119.73882369 767.85721352 119.74260714 773.8269943 119.75041493 779.79683028 C119.7519517 782.20732258 119.75012709 784.61781992 119.74455485 787.02830626 C119.68271578 815.68262041 123.61261029 840.80341708 143 863 C143.52851563 863.67160156 144.05703125 864.34320312 144.6015625 865.03515625 C158.42680541 882.16347444 180.6481134 891.92144093 202 895 C205.67002733 895.25598287 209.32089811 895.2746857 212.99884033 895.26006222 C214.58206035 895.26577072 214.58206035 895.26577072 216.19726461 895.27159455 C219.7217295 895.28187235 223.24603219 895.27801116 226.77050781 895.27415466 C229.32796288 895.27860912 231.88541656 895.28392385 234.44286823 895.29002339 C239.99714719 895.30183751 245.55139334 895.30623745 251.10568428 895.30570221 C259.36564835 895.30490714 267.62557117 895.31547769 275.88552419 895.32811778 C292.35836184 895.35282588 308.83118938 895.36163709 325.30404301 895.36665427 C326.1566168 895.36691544 327.00919059 895.36717662 327.88759995 895.36744571 C329.16909638 895.36783612 329.16909638 895.36783612 330.47648163 895.36823442 C339.95393732 895.37131963 349.43139023 895.37782542 358.90884399 895.3844471 C387.54724491 895.40409179 416.18564282 895.42049794 444.8240509 895.42332363 C445.7396018 895.42341769 446.65515269 895.42351175 447.59844755 895.42360866 C451.3085993 895.42398713 455.01875105 895.42435113 458.7289028 895.42471164 C461.52125421 895.42498336 464.31360562 895.42526004 467.10595703 895.42553711 C468.02865817 895.42562513 468.95135931 895.42571315 469.9020211 895.42580384 C498.88506882 895.42870842 527.86804981 895.45079848 556.85107422 895.48706055 C589.43079805 895.5278218 622.01047641 895.55148246 654.59022713 895.55178314 C658.06702805 895.55187996 661.54382896 895.55204668 665.02062988 895.55226326 C665.87667379 895.55230737 666.7327177 895.55235149 667.61470233 895.55239694 C681.36725612 895.55351496 695.11974283 895.57089699 708.87227505 895.59408258 C722.70472922 895.61696959 736.53709317 895.62112168 750.36955935 895.60653328 C758.57744439 895.59840605 766.78504443 895.60398632 774.99289467 895.62971413 C781.13619001 895.64740949 787.27919061 895.63869749 793.42247725 895.62006903 C795.8969012 895.61658487 798.37135496 895.62143814 800.84573984 895.63577347 C830.19093115 895.79474061 855.72476247 888.43177384 877.375 867.8125 C899.89750638 843.68124316 904.31311092 815.50850736 904.26742554 783.59677124 C904.27116576 781.1158111 904.27576877 778.63485213 904.28115618 776.15389502 C904.29081332 770.7760118 904.29430743 765.398178 904.29224396 760.02029037 C904.28918285 752.02263195 904.2975424 744.02501307 904.30799321 736.02736235 C904.32729786 720.90910461 904.3329601 705.79086047 904.33410732 690.67259185 C904.33502773 678.99403253 904.33915125 667.31547852 904.34550858 655.63692093 C904.34730376 652.27072355 904.34908339 648.90452616 904.35085833 645.53832877 C904.35130043 644.70139398 904.35174252 643.8644592 904.35219802 643.00216276 C904.36450005 619.47252376 904.37239979 595.9428866 904.37151146 572.41324425 C904.3714803 571.52679096 904.37144914 570.64033768 904.37141704 569.72702218 C904.37125084 565.23449033 904.37105276 560.74195849 904.37084763 556.24942665 C904.37080774 555.35725367 904.37076785 554.4650807 904.37072675 553.54587218 C904.37064587 551.74168232 904.37056228 549.93749246 904.37047596 548.1333026 C904.36925074 520.06947918 904.38426107 492.00570412 904.41162109 463.94189453 C904.44237453 432.38466581 904.45955164 400.82746886 904.45769465 369.27022421 C904.4575454 365.9021407 904.45744798 362.53405718 904.45738602 359.16597366 C904.45736271 358.33671654 904.4573394 357.50745942 904.45731538 356.65307329 C904.45725397 343.33698494 904.46999845 330.02093874 904.48725055 316.7048629 C904.50424426 303.31076593 904.50615167 289.91673029 904.4930319 276.52262847 C904.48566777 268.57714658 904.48922434 260.63185164 904.50891658 252.68638975 C904.52240963 246.73680187 904.51473718 240.78735823 904.49917014 234.83777161 C904.49611014 232.44350162 904.4996945 230.0492111 904.51089029 227.65496533 C904.64864722 196.08481977 898.28106272 170.34206571 876 147 C875.46117187 146.38640625 874.92234375 145.7728125 874.3671875 145.140625 C860.73077961 130.20224852 838.22263898 121.5991447 818.35859382 120.63211727 C811.68474682 120.43590729 805.01189104 120.46595863 798.33592224 120.49206543 C795.75464959 120.48745034 793.17337956 120.48109336 790.59211498 120.47315645 C785.00442946 120.45879334 779.41689887 120.45909593 773.82920647 120.46934509 C765.51986112 120.48454463 757.21064523 120.47670422 748.90130061 120.46451186 C734.05670985 120.44349937 719.21218814 120.44525421 704.36759089 120.45682751 C691.37716953 120.46690506 678.38677342 120.46950941 665.39634895 120.46473694 C664.1018847 120.46427863 664.1018847 120.46427863 662.78126966 120.46381106 C659.27783978 120.46256563 655.77440991 120.46129202 652.27098006 120.459972 C619.43310257 120.44774698 586.59526896 120.45881261 553.75739825 120.48035959 C524.60557598 120.49934249 495.45382361 120.49764082 466.30200195 120.47851562 C433.52119613 120.45708131 400.74042905 120.44861242 367.9596172 120.46096468 C364.46302323 120.46224748 360.96642926 120.46349884 357.46983528 120.46473694 C356.60893551 120.46505325 355.74803573 120.46536956 354.86104808 120.46569545 C341.88052915 120.47023866 328.90003828 120.46493676 315.91952324 120.45481873 C301.15571172 120.44336777 286.39197981 120.44627074 271.62817817 120.4679417 C263.37302166 120.47966041 255.1180377 120.48049199 246.86288578 120.465357 C240.68997279 120.45529098 234.51726181 120.46626023 228.34437359 120.4852553 C225.85403753 120.4897098 223.36367827 120.48748119 220.87335723 120.47775215 C191.32565584 120.37120497 167.32643715 127.67356285 146 149 Z " fill="#FEFEFE" transform="translate(0,0)"/>
<path d="M0 0 C3.12374074 1.78765954 5.87236457 4.01625753 8.6875 6.25 C55.45803128 41.89909678 117.61051505 67.18070669 176.890625 68.49609375 C179 69 179 69 180.61054993 70.59002686 C182.50225675 73.87115421 182.36039393 76.28489104 182.34057617 80.06347656 C182.34101425 80.76631775 182.34145233 81.46915894 182.34190369 82.19329834 C182.33981874 84.50935948 182.31650259 86.8246908 182.29296875 89.140625 C182.28737173 90.74916183 182.28310213 92.35770378 182.28010559 93.96624756 C182.26866513 98.19468366 182.239205 102.42280937 182.20599365 106.65112305 C182.17527544 110.96789349 182.16159652 115.28471421 182.14648438 119.6015625 C182.11433438 128.06785058 182.06314789 136.53388665 182 145 C180.23334144 144.84630904 178.46685312 144.69066024 176.70043945 144.53417969 C175.71670853 144.44771179 174.7329776 144.3612439 173.71943665 144.27215576 C171.73508421 144.07356575 169.7588561 143.78835549 167.79296875 143.453125 C148.50142908 140.32330877 131.51879184 147.04629092 115.9375 158.0625 C114.2726423 159.35078275 112.62435242 160.66100679 111 162 C110.38125 162.5053125 109.7625 163.010625 109.125 163.53125 C103.32657229 168.79278625 99.35253234 175.68643092 95.14648438 182.22070312 C89.52502486 190.94497846 89.52502486 190.94497846 86 194 C85.34 194 84.68 194 84 194 C84 194.66 84 195.32 84 196 C82.58398438 197.39477539 82.58398438 197.39477539 80.59375 199.03515625 C75.63418911 203.25231373 71.07671635 207.81233307 66.5 212.4375 C65.26636719 213.67790039 65.26636719 213.67790039 64.0078125 214.94335938 C62.00287887 216.95994959 60.00033747 218.97885236 58 221 C61.19245406 224.19388466 64.38795024 227.38465951 67.58740234 230.5715332 C71.94354611 234.91166229 76.29747097 239.25400534 80.649786 243.59797382 C83.27203316 246.21500735 85.8952078 248.83109706 88.52050781 251.44506836 C91.0766965 253.99030454 93.63035578 256.53805445 96.1823616 259.08748436 C97.61126567 260.51367988 99.04270611 261.93733279 100.47421265 263.36091614 C104.9790368 267.8653555 109.36084501 272.40881284 113.48820496 277.26335144 C116.15257546 280.32400124 119.04807159 283.15369739 121.9375 286 C122.52595703 286.58394531 123.11441406 287.16789062 123.72070312 287.76953125 C125.14479793 289.18204805 126.5720525 290.5913781 128 292 C130.31 288.04 132.62 284.08 135 280 C136.629375 280.66 138.25875 281.32 139.9375 282 C150.59675404 285.37107811 161.94953982 284.33584099 173 284 C171.29065772 290.77685447 169.34160486 297.20259862 166.4375 303.5625 C166.09235352 304.32353027 165.74720703 305.08456055 165.39160156 305.86865234 C158.49702132 320.78852398 150.27999828 334.18322189 140 347 C139.34837891 347.82822266 138.69675781 348.65644531 138.02539062 349.50976562 C132.74968455 356.11500621 127.09420163 362.21826079 121.09863281 368.16210938 C119.62587477 369.62413161 118.16414955 371.09657488 116.703125 372.5703125 C110.4688798 378.81434386 103.936055 384.53925771 97 390 C96.22237305 390.62100586 95.44474609 391.24201172 94.64355469 391.88183594 C85.68750316 399.01299896 76.64368713 405.81932537 67 412 C65.51833712 412.98127223 64.03797786 413.96451437 62.55859375 414.94921875 C47.69404202 424.79918722 32.35739395 433.67607265 16.625 442.0625 C15.95380127 442.42053711 15.28260254 442.77857422 14.59106445 443.14746094 C12.73809875 444.12124806 10.87180995 445.06307608 9 446 C7.89398437 446.57621094 6.78796875 447.15242188 5.6484375 447.74609375 C-1.74813832 450.28817174 -7.97047206 449.58222205 -14.97192383 446.25927734 C-15.78556396 445.84371582 -16.5992041 445.4281543 -17.4375 445 C-18.32655029 444.55994629 -19.21560059 444.11989258 -20.1315918 443.66650391 C-67.9393479 419.46928898 -118.58621099 385.35872515 -150 341 C-150.75667969 339.96488281 -151.51335937 338.92976563 -152.29296875 337.86328125 C-176.98449416 303.31214501 -188.1332967 266.30139193 -188.16113281 224.05810547 C-188.16577282 222.39605095 -188.17079903 220.73399748 -188.17617798 219.07194519 C-188.18917239 214.59951608 -188.19571885 210.12710187 -188.20018864 205.65465689 C-188.20313469 202.85798668 -188.20724181 200.06132044 -188.21169281 197.26465225 C-188.22532066 188.5054711 -188.23501567 179.74629912 -188.2388947 170.98710811 C-188.24339298 160.88831938 -188.26104198 150.78966481 -188.2898953 140.6909169 C-188.31147235 132.86731529 -188.3215965 125.04375161 -188.32293582 117.22012055 C-188.32398479 112.5526785 -188.32991477 107.88536339 -188.34775543 103.21795273 C-188.36417186 98.83968492 -188.36642321 94.46164056 -188.35761642 90.08335304 C-188.35684314 88.47526388 -188.36122687 86.86716297 -188.37107468 85.25910378 C-188.38370544 83.06885887 -188.37796732 80.87941673 -188.36749268 78.68917847 C-188.36895924 77.46256437 -188.3704258 76.23595028 -188.3719368 74.97216606 C-188 72 -188 72 -186.63019943 70.11447334 C-184.30673941 68.52605772 -182.39821754 68.46809772 -179.6015625 68.26171875 C-177.94519775 68.12020386 -177.94519775 68.12020386 -176.25537109 67.97583008 C-175.05734863 67.88068115 -173.85932617 67.78553223 -172.625 67.6875 C-148.35117665 65.39387331 -125.0580711 59.86021121 -102 52 C-101.00194336 51.66129883 -100.00388672 51.32259766 -98.97558594 50.97363281 C-66.23578398 39.68885001 -37.11343235 23.1230989 -9.66845703 2.21020508 C-6.31382174 -0.22305907 -4.13900267 -0.5487135 0 0 Z " fill="#196BAE" transform="translate(515,204)"/>
<path d="M0 0 C0.90276639 -0.00327219 1.80553278 -0.00654439 2.73565573 -0.00991574 C4.21273786 -0.0076903 4.21273786 -0.0076903 5.71966004 -0.00541991 C6.77556968 -0.00777214 7.83147931 -0.01012437 8.91938621 -0.01254788 C12.48138271 -0.01924039 16.04334275 -0.01877958 19.60534501 -0.01836985 C22.17554531 -0.02166833 24.74574508 -0.02539387 27.31594419 -0.02951133 C33.6543532 -0.03883691 39.99275522 -0.04275932 46.33117023 -0.0450303 C53.92233681 -0.04799255 61.51349412 -0.0566902 69.10465584 -0.06544458 C87.45541937 -0.08629086 105.80618452 -0.09675973 124.15695714 -0.10557419 C132.84003904 -0.10978111 141.52312024 -0.11500309 150.20620155 -0.12025872 C179.93431385 -0.13815057 209.66242635 -0.1531455 239.39054322 -0.16057891 C241.25701279 -0.16105366 243.12348236 -0.16152955 244.98995192 -0.16200657 C245.91554808 -0.16224294 246.84114423 -0.16247932 247.79478875 -0.16272286 C252.48426536 -0.16392405 257.17374195 -0.1651395 261.86321855 -0.16636485 C262.79385789 -0.166605 263.72449724 -0.16684515 264.68333778 -0.16709258 C294.84474602 -0.17498235 325.0061149 -0.19840671 355.16750596 -0.23092079 C387.06143901 -0.26523972 418.95534904 -0.28493204 450.84930086 -0.28822315 C454.35255918 -0.28864068 457.85581748 -0.28912024 461.35907578 -0.28964633 C462.22166614 -0.28976952 463.0842565 -0.28989271 463.97298596 -0.29001964 C477.83969528 -0.29234928 491.70635882 -0.3079963 505.57305184 -0.32848817 C519.52045305 -0.34877175 533.46779943 -0.35421154 547.41521266 -0.34471754 C555.69454783 -0.33951215 563.97370004 -0.34533434 572.25300878 -0.36725221 C578.44617773 -0.38240386 584.63916261 -0.37648335 590.83233073 -0.36258169 C593.32977855 -0.36020515 595.82724411 -0.36453149 598.3246648 -0.37641034 C627.61218327 -0.50703499 652.21201837 6.01905773 673.64105058 26.81630117 C696.38832672 49.98697415 701.029289 78.99622766 700.89225602 110.26701528 C700.89615646 112.75458096 700.90180283 115.2421444 700.90902692 117.72970265 C700.92064384 123.1034324 700.92004856 128.47694633 700.90824723 133.85066015 C700.89074628 141.84187147 700.89640748 149.83295445 700.90641414 157.82417274 C700.92354565 172.10193826 700.91810399 186.37962664 700.90305696 200.65739051 C700.88997562 213.15127393 700.8848149 225.64513066 700.88737512 238.13902074 C700.88761574 239.38491133 700.88761574 239.38491133 700.88786122 240.65597142 C700.88852487 244.02808508 700.88922729 247.40019873 700.88998656 250.77231237 C700.89700113 282.36611043 700.88155068 313.95986154 700.85536311 345.55364766 C700.83224601 373.59157164 700.82686247 401.62944403 700.8370955 429.66737539 C700.83969775 436.84942352 700.84228283 444.03147167 700.84469342 451.21351987 C700.84499087 452.09785732 700.84528832 452.98219478 700.84559478 453.89333034 C700.85321767 477.35914756 700.84679042 500.8249606 700.8359974 524.29077595 C700.83484966 526.81709243 700.83370648 529.34340891 700.83257058 531.86972539 C700.83181533 533.54543642 700.83104969 535.22114745 700.83027357 536.89685848 C700.82462692 549.38091671 700.82593725 561.86496156 700.83050179 574.34901983 C700.83562027 588.54945219 700.82970931 602.74983467 700.8096075 616.95025463 C700.79865957 624.88726341 700.79579215 632.82417407 700.80489603 640.76118574 C700.81076438 646.7006771 700.80081669 652.64007593 700.78489638 658.57955103 C700.78087106 660.97225588 700.7818193 663.36497574 700.78841525 665.75767489 C700.86973598 698.0345214 694.39308896 724.36087824 672.09026933 748.63270742 C659.86708648 760.43367324 644.65780359 767.81969955 628.39105058 772.12880117 C627.40145663 772.39508008 627.40145663 772.39508008 626.39187088 772.66673837 C620.4178187 774.14176796 614.77114003 774.41213837 608.63551259 774.38607007 C607.58204067 774.38957615 606.52856875 774.39308222 605.44317344 774.39669454 C601.91350366 774.40599758 598.38399927 774.40108795 594.85432267 774.3962267 C592.29788125 774.39996352 589.74144097 774.40456517 587.18500251 774.40995735 C581.62676592 774.42024775 576.06856416 774.42310281 570.51031899 774.42104512 C562.24449626 774.41799258 553.978712 774.42632484 545.71289674 774.43679438 C530.08874453 774.4561312 514.46460544 774.46176252 498.84044266 774.46290849 C486.77130035 774.46382792 474.70216319 774.46794641 462.63302255 774.47430974 C459.15763337 774.47610487 455.68224419 774.4778845 452.206855 774.4796595 C451.34282761 774.48010159 450.47880021 774.48054369 449.58859017 774.48099918 C425.28554403 774.49330722 400.98249967 774.50120037 376.67945027 774.50031263 C375.76324213 774.50028147 374.84703398 774.50025031 373.90306196 774.50021821 C369.25946562 774.500052 364.61586928 774.49985392 359.97227294 774.49964879 C359.05006002 774.4996089 358.1278471 774.49956901 357.17768833 774.49952791 C355.31274757 774.49944704 353.44780681 774.49936344 351.58286605 774.49927713 C322.58002403 774.49805215 293.57722881 774.51305516 264.57440019 774.54042226 C231.97895356 774.57116678 199.38353767 774.58835326 166.78807563 774.58649582 C163.30985725 774.58634656 159.83163888 774.58624914 156.3534205 774.58618718 C155.49701616 774.58616388 154.64061183 774.58614057 153.75825586 774.58611655 C139.99610827 774.58605509 126.2340014 774.5988091 112.47186591 774.61605171 C98.63023112 774.63303471 84.7886557 774.63496125 70.94701625 774.62183307 C62.73230575 774.61446116 54.51777599 774.61804894 46.30308477 774.63771775 C40.15640625 774.65118662 34.00991872 774.64355893 27.863249 774.62797131 C25.38609319 774.62490553 22.90891762 774.6285177 20.43178511 774.63969146 C-5.75011994 774.74991753 -27.60300052 770.38780357 -48.60894942 754.12880117 C-49.40687911 753.51520742 -50.2048088 752.90161367 -51.02691817 752.26942617 C-69.84835831 736.67927752 -80.78595252 713.45073521 -83.41661344 689.45018986 C-84.1532969 680.55882873 -83.88501324 671.57427484 -83.86964583 662.66069204 C-83.87266923 660.17275656 -83.87655965 657.68482202 -83.8812384 655.1968891 C-83.88936386 649.80387073 -83.89132585 644.41090543 -83.88773513 639.01788312 C-83.88240957 630.99793727 -83.88854197 622.97802794 -83.89681806 614.95808606 C-83.9120322 599.79898801 -83.91376583 584.6399067 -83.91129503 569.48080261 C-83.90946018 557.77312836 -83.91122601 546.06545957 -83.91551948 534.357786 C-83.91612188 532.67392095 -83.91672308 530.99005589 -83.91732308 529.30619084 C-83.91823036 526.76857122 -83.91913903 524.2309516 -83.92005543 521.69333199 C-83.92848098 498.11010284 -83.93282337 474.52687574 -83.92864871 450.9436453 C-83.92849233 450.05520828 -83.92833596 449.16677126 -83.92817484 448.25141191 C-83.9273691 443.74877166 -83.92652333 439.24613142 -83.92566154 434.74349119 C-83.92549045 433.84930048 -83.92531937 432.95510978 -83.92514309 432.03382239 C-83.92479644 430.2255537 -83.92444791 428.41728501 -83.92409751 426.60901633 C-83.91874013 398.47139315 -83.92667282 370.33380131 -83.94513106 342.19618398 C-83.96585932 310.56135336 -83.97657228 278.92654215 -83.97255558 247.29170436 C-83.97216025 243.9169522 -83.9717987 240.54220003 -83.9714582 237.16744787 C-83.97136746 236.3365379 -83.97127673 235.50562793 -83.97118325 234.64953888 C-83.97001866 222.1215877 -83.97665503 209.59365616 -83.98727012 197.06570989 C-83.9993335 182.81421053 -84.00086789 168.56275436 -83.98847995 154.31125434 C-83.98186289 146.34274527 -83.98345574 138.37433957 -83.99706846 130.40583882 C-84.0063134 124.44619873 -83.99976781 118.48668351 -83.98722067 112.527045 C-83.98457299 110.12342627 -83.98694246 107.71979541 -83.99495653 105.31618859 C-84.09297243 73.7149576 -77.18113939 48.23157808 -54.73394942 24.94130117 C-40.88416287 11.49022059 -19.76958732 0.01884293 0 0 Z M-39.60894942 39.12880117 C-40.52547286 39.90610585 -40.52547286 39.90610585 -41.46051192 40.69911367 C-55.51380158 53.46899787 -62.57177083 73.19467306 -63.77948575 91.74874304 C-64.06081146 99.0437977 -64.01681789 106.3417082 -63.99662948 113.64087087 C-64.0008077 116.10919705 -64.00628789 118.57752132 -64.01294929 121.04584205 C-64.02435819 126.38986544 -64.02655559 131.73377159 -64.02039886 137.07779485 C-64.01126786 145.02488905 -64.01937165 152.97190269 -64.0306901 160.91899075 C-64.05031378 175.11686697 -64.05271274 189.3147066 -64.04749489 203.51259315 C-64.04293081 215.93830782 -64.04354552 228.36400805 -64.04933524 240.78972226 C-64.05009212 242.45900498 -64.0508481 244.1282877 -64.05160319 245.79757043 C-64.05274843 248.31327656 -64.05389831 250.82898269 -64.05506243 253.34468882 C-64.06576071 276.72001049 -64.0704995 300.09532736 -64.06259227 323.47065049 C-64.06229509 324.35101596 -64.06199792 325.23138143 -64.06169174 326.13842464 C-64.05924301 333.28679745 -64.05663132 340.43517021 -64.05400761 347.58354297 C-64.04390497 375.46640907 -64.05226364 403.34921495 -64.07550216 431.23207265 C-64.10159279 462.58749507 -64.11441803 493.94288125 -64.10731441 525.29831493 C-64.10659839 528.64356471 -64.10592399 531.98881451 -64.10527396 535.3340643 C-64.10510415 536.1576981 -64.10493434 536.98133189 -64.10475939 537.82992428 C-64.1024597 550.24438746 -64.11041753 562.65881691 -64.12356544 575.07327253 C-64.13849611 589.19588323 -64.13929372 603.31841502 -64.12149452 617.44102406 C-64.11195287 625.33604251 -64.11332257 633.23087675 -64.13072921 641.12588278 C-64.14250109 647.03249964 -64.13319115 652.93896479 -64.11590684 658.845572 C-64.11214915 661.22626794 -64.11506203 663.60698631 -64.12551849 665.98766225 C-64.23052413 691.7364018 -59.91752636 713.53690481 -41.78473067 733.04286367 C-26.41331974 747.77954848 -7.21370601 754.29905072 13.71867108 754.26022893 C15.26592549 754.26330788 15.26592549 754.26330788 16.84443757 754.26644903 C20.31135745 754.27211711 23.77823759 754.27066201 27.24516129 754.26924306 C29.75180349 754.27182681 32.25844526 754.27484 34.76508647 754.27824646 C40.9384945 754.28547192 47.11189006 754.28801904 53.28530182 754.28857552 C60.68054119 754.28949011 68.07577257 754.2961605 75.4710085 754.30292234 C93.34501276 754.3189755 111.21901616 754.32488498 129.09302633 754.32967109 C137.55102095 754.33200786 146.00901489 754.33561062 154.46700898 754.33936647 C183.42740362 754.35220177 212.38779789 754.36292066 241.34819531 754.36636907 C243.16587654 754.3665907 244.98355776 754.36681248 246.80123899 754.36703442 C248.62327866 754.36725506 250.44531833 754.36747554 252.26735801 754.36769587 C255.92260253 754.36813842 259.57784706 754.36858553 263.23309159 754.36903554 C264.59252187 754.36919963 264.59252187 754.36919963 265.97941538 754.36936703 C295.35841089 754.37299676 324.73738171 754.38891374 354.11636776 754.41222591 C385.1873323 754.43683551 416.25828274 754.45054245 447.32925731 754.45173699 C450.74175227 754.45190844 454.15424723 754.45212386 457.56674218 754.45237142 C458.82709374 754.45245507 458.82709374 754.45245507 460.11290695 754.45254041 C473.62077887 754.45368992 487.12862542 754.4647034 500.63648878 754.47925847 C514.22067609 754.49364238 527.80483094 754.49684978 541.38902377 754.4888185 C549.45303611 754.48437107 557.51694351 754.48818724 565.58094201 754.504057 C571.61196249 754.51499319 577.64286395 754.51013815 583.67388899 754.49928513 C586.106655 754.49732902 588.5394316 754.50040252 590.97218274 754.50912949 C617.04519082 754.59670857 639.16571396 751.21756932 658.97698808 732.63270742 C677.74781622 713.16328858 679.84826923 692.11818093 679.77873063 666.4708727 C679.78290724 663.96231197 679.78838655 661.45375312 679.79505044 658.94519776 C679.80647351 653.50709604 679.80864937 648.06911408 679.80250001 642.63100606 C679.79337994 634.54403896 679.80146416 626.45715121 679.81279125 618.37019018 C679.83242827 603.92327105 679.83481128 589.47638787 679.82959605 575.02945858 C679.825034 562.38525949 679.82564413 549.7410746 679.8314364 537.09687597 C679.83219327 535.39899394 679.83294925 533.70111191 679.83370434 532.00322988 C679.83484957 529.44449074 679.83599945 526.88575161 679.83716358 524.32701249 C679.84786407 500.54730329 679.85259845 476.7675988 679.84469342 452.98788816 C679.84439625 452.09203684 679.84409908 451.19618552 679.8437929 450.27318719 C679.84134411 442.998837 679.83873245 435.72448686 679.83610876 428.45013673 C679.82600683 400.07754015 679.83436257 371.70500277 679.85760331 343.33241445 C679.88369015 311.43389116 679.8965201 279.53540349 679.88941556 247.63686913 C679.88869953 244.23403206 679.88802514 240.83119498 679.88737512 237.4283579 C679.8871204 236.17161932 679.8871204 236.17161932 679.88686054 234.88949208 C679.88456011 222.2568777 679.89252227 209.62429646 679.90566659 196.9916895 C679.92059275 182.62123507 679.92140097 168.25085818 679.90359568 153.88040538 C679.89404903 145.84521561 679.89543399 137.81020682 679.91283037 129.77502922 C679.92459177 123.76573826 679.91530377 117.75666944 679.898008 111.747384 C679.89424677 109.3235777 679.89717338 106.89974941 679.90761965 104.47596271 C679.97140364 88.53802888 679.41346132 73.32834625 671.82855058 58.87880117 C671.49411942 58.22605214 671.15968827 57.57330312 670.81512284 56.90077382 C667.0719144 49.97604968 662.03757503 44.5450293 656.39105058 39.12880117 C655.7851912 38.52680898 655.17933183 37.92481679 654.55511308 37.30458242 C640.5696056 24.30829376 622.39091522 19.96592963 603.86229539 19.99458009 C602.30064741 19.99105174 602.30064741 19.99105174 600.70745099 19.98745212 C597.21391213 19.98078763 593.72041068 19.98121957 590.22686601 19.98163015 C587.69873665 19.97832995 585.17060782 19.97460405 582.64247966 19.97048867 C576.41980717 19.96152818 570.19714578 19.9572439 563.97446772 19.9549697 C556.51945681 19.9520026 549.06445528 19.94330227 541.6094493 19.93455542 C523.59232027 19.91373148 505.57518961 19.90324471 487.55805134 19.89442581 C479.03205294 19.89021664 470.50605523 19.88499504 461.98005741 19.87974128 C432.785379 19.86185347 403.59070038 19.84685788 374.39601731 19.83942109 C372.56388868 19.83894634 370.73176004 19.83847045 368.89963141 19.83799343 C367.99107811 19.83775706 367.08252481 19.83752068 366.1464396 19.83727714 C361.54340627 19.83607597 356.94037296 19.83486051 352.33733964 19.83363515 C350.96712237 19.83327493 350.96712237 19.83327493 349.56922395 19.83290742 C319.95439464 19.8250151 290.33960539 19.80158343 260.72479358 19.76907921 C229.40230704 19.73476356 198.07984393 19.7150684 166.75733829 19.71177685 C163.31733568 19.71135932 159.87733308 19.71087976 156.43733048 19.71035367 C155.59032686 19.71023048 154.74332324 19.71010729 153.87065284 19.70998036 C140.25403563 19.70765063 126.63746505 19.69200347 113.02086445 19.67151183 C99.3281335 19.65123287 85.63545841 19.64578634 71.94271523 19.65528246 C63.81423453 19.66048919 55.68594014 19.65465919 47.55748634 19.63274779 C41.47851309 19.61760341 35.39974787 19.62351164 29.32076389 19.63741831 C26.86851066 19.63979601 24.41623939 19.63546251 21.96401376 19.62358966 C-1.64386328 19.51640422 -21.38692095 22.74871059 -39.60894942 39.12880117 Z " fill="#1869AC" transform="translate(203.6089494228363,120.87119883298874)"/>
<path d="M0 0 C1.5768308 -0.0083016 1.5768308 -0.0083016 3.18551677 -0.0167709 C6.70163265 -0.03036451 10.21703714 -0.01541452 13.73313904 -0.00050354 C16.25642702 -0.00428714 18.77971292 -0.00978751 21.30299377 -0.01687622 C27.44099256 -0.029392 33.57872828 -0.02326519 39.71671385 -0.00820064 C46.86693179 0.00867887 54.01709867 0.0054468 61.16733038 0.00170528 C73.92579908 -0.00417014 86.68416902 0.00998634 99.44261169 0.03465271 C111.81895143 0.05857761 124.19515924 0.06565461 136.57151794 0.05516052 C150.05455626 0.04374852 163.53753359 0.04182435 177.02057117 0.05625862 C178.45851735 0.05778443 179.89646353 0.05930479 181.33440971 0.06081963 C182.04187687 0.06157744 182.74934402 0.06233525 183.47824957 0.06311603 C188.4608768 0.06785628 193.44347678 0.0660093 198.42610359 0.06175423 C205.13285239 0.0563102 211.8393915 0.06707958 218.54611588 0.08870888 C221.00919541 0.09427888 223.47229251 0.09474011 225.93537331 0.08975601 C229.29403331 0.08381141 232.65213272 0.09629323 236.01074219 0.11352539 C236.98846401 0.10751535 237.96618584 0.1015053 238.9735356 0.09531313 C244.2013594 0.14418275 247.94364611 0.52118249 252.44187927 3.50120544 C253.81687927 5.68870544 253.81687927 5.68870544 254.44187927 7.50120544 C248.93794606 13.09619638 243.44484478 18.59683608 237.46922302 23.69261169 C234.12855527 26.67282204 231.0362911 29.89951139 227.89109802 33.08323669 C225.13141888 35.80770462 222.2500727 38.33667921 219.30516052 40.85667419 C216.82694875 43.04394286 214.5382376 45.39400424 212.22312927 47.75120544 C209.72291742 50.20755393 207.06507411 52.46429912 204.41062927 54.75120544 C202.51164856 56.4391883 200.72181939 58.18890278 198.94187927 60.00120544 C195.9035551 63.09477188 192.69422607 65.92226051 189.41062927 68.75120544 C186.93525703 70.95153633 184.63394121 73.29584661 182.31541443 75.65892029 C180.51521007 77.42909779 178.66131236 79.08296848 176.74656677 80.72776794 C172.41005655 84.49803959 168.2330246 88.41962957 164.06687927 92.37620544 C158.71573713 97.43581417 153.34477954 102.45983229 147.83641052 107.34886169 C146.01904028 108.98241962 144.2304815 110.63316461 142.45359802 112.30979919 C126.72333893 127.10046234 126.72333893 127.10046234 115.96141052 126.89183044 C107.14629552 125.52514595 100.90939567 118.29847692 95.02000427 112.15745544 C92.35483969 109.4115283 89.57489942 106.92446339 86.66844177 104.44261169 C83.15974873 101.38327759 79.76515101 98.20091801 76.3603363 95.02684021 C73.45488474 92.32724777 70.51433004 89.68024115 67.52000427 87.07933044 C63.48486368 83.56497759 59.57978341 79.92694564 55.69187927 76.25120544 C50.94750244 71.78387252 46.19097899 67.3336037 41.37937927 62.93870544 C33.69541912 55.91930401 26.10565685 48.79939375 18.50535583 41.68968201 C10.19182641 33.9144084 1.84531865 26.17924832 -6.55812073 18.50120544 C-8.80885401 16.43950498 -11.05849415 14.37661335 -13.30812073 12.31370544 C-14.32372636 11.38269474 -15.33934947 10.45170308 -16.35499573 9.52073669 C-17.08202698 8.85429138 -17.80905823 8.18784607 -18.55812073 7.50120544 C-17.37703713 3.95795465 -15.96549954 3.04229461 -12.72903836 1.3196429 C-8.58115121 -0.24411344 -4.38261889 -0.04315271 0 0 Z " fill="#FEFEFE" transform="translate(393.55812072753906,319.49879455566406)"/>
<path d="M0 0 C3.006818 1.33999498 4.99762609 2.79845291 7.25 5.1875 C10.98530053 9.02589799 14.9098415 12.54477585 19 16 C19.79664063 16.68578125 20.59328125 17.3715625 21.4140625 18.078125 C31.90998753 26.85180846 41.31754912 30.08467901 55 29 C66.82731382 26.42682294 74.75006236 18.44059702 83.22021484 10.3515625 C83.73793457 9.86171875 84.2556543 9.371875 84.7890625 8.8671875 C85.46509521 8.21919189 85.46509521 8.21919189 86.15478516 7.55810547 C88.96620332 5.18413475 91.98719992 3.10916101 95 1 C100.00237575 5.9768667 105.00070483 10.95777154 109.99633789 15.94140625 C111.69366667 17.63372911 113.39189477 19.3251505 115.09106445 21.015625 C117.54359341 23.45592369 119.99279096 25.89952506 122.44140625 28.34375 C123.19273331 29.08991577 123.94406036 29.83608154 124.71815491 30.6048584 C128.74531538 34.63159654 132.57563352 38.75416115 136.29310608 43.06726074 C139.1426473 46.29383512 142.19055277 49.31364188 145.24609375 52.34375 C146.23005882 53.32559265 146.23005882 53.32559265 147.23390198 54.32727051 C149.29940145 56.38723823 151.36837595 58.44367366 153.4375 60.5 C154.85114434 61.9086205 156.26455786 63.31747267 157.67773438 64.7265625 C161.11583149 68.15372133 164.55704656 71.57772019 168 75 C165.57860235 78.28618252 163.79913531 80.46497192 160 82 C156.97504008 82.19507692 154.04243998 82.27832316 151.01748657 82.26742554 C150.09950299 82.27195665 149.1815194 82.27648776 148.23571813 82.28115618 C145.15270005 82.29383949 142.06985773 82.29217727 138.98681641 82.29052734 C136.77923861 82.29651012 134.5716629 82.30331508 132.36408997 82.31088257 C126.36203811 82.32857485 120.36004326 82.3332393 114.35796785 82.33451414 C109.35039013 82.33641159 104.34282573 82.34376731 99.33525312 82.35085833 C88.19763738 82.36622096 77.06004274 82.37219515 65.92241867 82.37084763 C64.92006459 82.37072776 64.92006459 82.37072776 63.89746094 82.37060547 C63.22840848 82.37052371 62.55935603 82.37044195 61.87002926 82.37035771 C51.02667913 82.36954478 40.18346789 82.3886843 29.34015794 82.4168822 C18.20485716 82.44561081 7.06960726 82.45905624 -4.06573546 82.45769465 C-10.31681954 82.45718423 -16.56774645 82.46291177 -22.81879807 82.48405075 C-28.69736531 82.50338688 -34.57562468 82.50358913 -40.45420265 82.48901749 C-42.61251715 82.48692258 -44.77085068 82.49167065 -46.92913246 82.5037384 C-49.874292 82.51914009 -52.81838328 82.50991602 -55.76351929 82.49447632 C-56.61877713 82.50476344 -57.47403497 82.51505057 -58.35520971 82.52564943 C-63.63179302 82.46446789 -66.94261221 81.71637253 -71 78 C-71 74 -71 74 -68.83984375 71.484375 C-67.88207031 70.58203125 -66.92429687 69.6796875 -65.9375 68.75 C-62.72210044 65.69779631 -59.667227 62.66568411 -56.78515625 59.296875 C-51.45404262 53.11930899 -45.54511595 47.502045 -39.73828125 41.77734375 C-35.177929 37.25647507 -30.77256436 32.69547362 -26.59570312 27.81835938 C-24.03734255 24.90301825 -21.27292091 22.20929108 -18.5 19.5 C-14.30089525 15.35362374 -10.25703117 11.15665515 -6.43359375 6.65625 C-4.40393442 4.31135747 -2.22564049 2.15819683 0 0 Z " fill="#FEFEFE" transform="translate(464,437)"/>
<path d="M0 0 C10.57674404 8.28471825 17.61272678 21.60467903 20.04296875 34.66796875 C21.85444498 51.30112239 18.44280433 66.26373622 8.04296875 79.66796875 C-2.47663921 92.2752831 -15.96219295 98.20000242 -32 100.01171875 C-45.67218716 100.48521441 -59.00911815 95.24989645 -69.26953125 86.35546875 C-81.99259739 74.16253036 -88.88404203 60.34567096 -89.33203125 42.54296875 C-88.95949254 29.04216584 -83.56346427 14.43438191 -74.09375 4.5390625 C-51.87286467 -14.91944586 -24.60446755 -16.74675337 0 0 Z " fill="#196AAE" transform="translate(707.95703125,373.33203125)"/>
<path d="M0 0 C3.87949716 1.79532109 6.26961294 4.10067055 9.25 7.1875 C13.08062914 11.11012557 17.0018834 14.83087608 21.171875 18.390625 C23.60697552 20.53434597 25.85322453 22.84078093 28.12426758 25.15551758 C29.94179901 26.94276865 31.81441061 28.61484366 33.74609375 30.27734375 C37.77500456 33.78078468 41.68125618 37.39696254 45.5625 41.0625 C46.96601034 42.38295654 48.36965948 43.70326555 49.7734375 45.0234375 C50.82869629 46.01682129 50.82869629 46.01682129 51.90527344 47.03027344 C55.15918054 50.090008 58.42223673 53.13989256 61.6875 56.1875 C62.29609863 56.75557373 62.90469727 57.32364746 63.53173828 57.90893555 C69.66611141 63.62948842 75.82945187 69.31851723 82 75 C77.8184651 80.06185803 73.36344007 84.69642178 68.66015625 89.27734375 C66.57693229 91.40951277 64.62620146 93.56095442 62.68359375 95.81640625 C58.3612977 100.80358088 53.66953669 105.38160386 48.9609375 110 C45.69464114 113.22846281 42.53095452 116.48238355 39.53515625 119.96484375 C35.72227566 124.39176352 31.60369548 128.47037021 27.4375 132.5625 C23.32902339 136.59832451 19.2759938 140.59035606 15.59765625 145.02734375 C14.74042969 146.00832031 13.88320313 146.98929688 13 148 C12.34 148 11.68 148 11 148 C0.58717653 127.08900205 -0.29964946 106.69076748 -0.1953125 83.7890625 C-0.1915758 81.36526609 -0.18873194 78.94146815 -0.18673706 76.51766968 C-0.17915235 70.18188198 -0.15954892 63.84618803 -0.1373291 57.51043701 C-0.11675869 51.02780424 -0.10771154 44.5451561 -0.09765625 38.0625 C-0.07629757 25.37496033 -0.0426171 12.68748518 0 0 Z " fill="#FDFEFE" transform="translate(368,348)"/>
<path d="M0 0 C5.28 0 10.56 0 16 0 C16 28.38 16 56.76 16 86 C10.72 86 5.44 86 0 86 C-0.495 82.535 -0.495 82.535 -1 79 C-1.639375 79.7425 -2.27875 80.485 -2.9375 81.25 C-7.44873804 85.71040719 -13.16772239 88.17895795 -19.5 88.5 C-27.36804057 88.07580999 -33.60452071 84.18468201 -39.2734375 78.93359375 C-47.25143978 69.99895319 -46.60296229 58.60159985 -46.17919922 47.34130859 C-45.65006129 40.42791245 -42.54631388 34.53323614 -37.8125 29.5390625 C-31.41802908 24.10927469 -25.08934208 22.25000876 -16.76171875 22.64453125 C-9.84471843 23.53483822 -6.51954237 26.40038136 -1 31 C-0.67 20.77 -0.34 10.54 0 0 Z " fill="#1767AC" transform="translate(801,691)"/>
<path d="M0 0 C5.28 0 10.56 0 16 0 C16.495 15.345 16.495 15.345 17 31 C19.31 29.02 21.62 27.04 24 25 C30.42000871 21.66505536 38.00482787 22.16017294 44.8125 24.1875 C52.13315488 27.00614787 56.56724305 32.12204857 60 39 C62.06932509 43.99666303 62.35156076 48.42545981 62.3125 53.75 C62.30404053 54.94761963 62.30404053 54.94761963 62.29541016 56.16943359 C62.09480245 65.9356523 60.0460174 73.89064762 53 81 C47.04184238 85.67376436 40.78414548 88.47480819 33.08203125 88.25390625 C27.15748709 87.53140086 22.34190534 85.07875956 18 81 C17.505 80.01 17.505 80.01 17 79 C16.67 81.31 16.34 83.62 16 86 C10.72 86 5.44 86 0 86 C0 57.62 0 29.24 0 0 Z " fill="#1A69AD" transform="translate(295,691)"/>
<path d="M0 0 C6.16920482 4.87770774 9.26334718 11.17285404 11.71484375 18.52734375 C12.49692775 29.7072986 12.11451879 39.94975346 5.21484375 49.33984375 C-0.21034089 55.11279664 -8.87795243 59.0004437 -16.73046875 59.765625 C-26.38161418 60.03293078 -33.98668724 57.26611896 -41.53125 51.23046875 C-47.60639612 45.33121773 -50.48772814 37.87738345 -50.66577148 29.46264648 C-50.63770237 18.53887854 -49.00973685 10.50917094 -41.28515625 2.28515625 C-29.56945733 -8.01184475 -12.98199076 -8.36617183 0 0 Z " fill="#1868AD" transform="translate(414.28515625,719.47265625)"/>
<path d="M0 0 C5.01681077 3.9293782 8.03964962 8.33517461 9.76953125 14.4921875 C9.76953125 15.8121875 9.76953125 17.1321875 9.76953125 18.4921875 C4.48953125 18.4921875 -0.79046875 18.4921875 -6.23046875 18.4921875 C-7.22046875 16.5121875 -8.21046875 14.5321875 -9.23046875 12.4921875 C-13.78540208 8.23112083 -18.76940884 8.2077444 -24.75390625 8.26953125 C-28.12695385 8.57278632 -30.43772408 9.60708485 -33.23046875 11.4921875 C-35.73078529 15.24266232 -35.76650429 17.05075016 -35.23046875 21.4921875 C-31.27380794 27.7935362 -24.04442296 28.67660315 -17.23046875 30.4921875 C3.1828308 35.96578517 3.1828308 35.96578517 9.76953125 45.4921875 C11.93751866 51.99614972 12.07734289 60.67504864 9.20703125 66.9921875 C4.68430787 74.29092729 -1.2401312 77.54169307 -9.42578125 79.80078125 C-22.11569018 82.106853 -34.82393515 81.53244131 -46.04296875 74.8046875 C-51.06240895 71.19779773 -54.47903701 67.12504921 -55.75 60.98046875 C-56.00358771 58.82666376 -56.12892327 56.65849107 -56.23046875 54.4921875 C-50.62046875 54.4921875 -45.01046875 54.4921875 -39.23046875 54.4921875 C-38.24046875 56.8021875 -37.25046875 59.1121875 -36.23046875 61.4921875 C-30.87858358 66.57647841 -26.36019926 66.77506657 -19.25390625 66.71484375 C-15.19683784 66.41606739 -12.72998754 65.54625288 -9.23046875 63.4921875 C-7.08755856 60.27782221 -6.93021084 58.31792141 -6.76953125 54.52734375 C-7.44923452 51.526281 -8.85259224 50.39528665 -11.23046875 48.4921875 C-13.86435864 47.36384766 -13.86435864 47.36384766 -16.85546875 46.6171875 C-17.99628906 46.28589844 -19.13710938 45.95460938 -20.3125 45.61328125 C-20.93592285 45.43522949 -21.5593457 45.25717773 -22.20166016 45.07373047 C-45.98652337 38.25597545 -45.98652337 38.25597545 -52.23046875 28.3046875 C-53.98392083 21.61965144 -54.54110276 14.56935482 -51.66796875 8.1171875 C-47.85564967 1.63759218 -41.38794685 -3.14907059 -34.125 -5.0625 C-22.27570988 -6.88546771 -10.1366315 -6.85243391 0 0 Z " fill="#1767AC" transform="translate(547.23046875,697.5078125)"/>
<path d="M0 0 C5.28 0 10.56 0 16 0 C16.495 15.345 16.495 15.345 17 31 C19.64 29.02 22.28 27.04 25 25 C30.68880358 22.11811707 37.16171193 21.90240735 43.28125 23.65234375 C49.06719478 26.24489209 53.41306634 30.54628264 56.06246948 36.31230164 C57.01495435 39.04287089 57.24254779 41.0073844 57.22705078 43.88208008 C57.22689972 44.82267776 57.22674866 45.76327545 57.22659302 46.7323761 C57.21627045 47.7346373 57.20594788 48.7368985 57.1953125 49.76953125 C57.1924826 50.80567062 57.18965271 51.84181 57.18673706 52.90934753 C57.17556454 56.21051707 57.15046505 59.51141281 57.125 62.8125 C57.11496643 65.05403253 57.10584124 67.29556933 57.09765625 69.53710938 C57.07563474 75.02484467 57.04112476 80.51237595 57 86 C51.72 86 46.44 86 41 86 C40.98541748 84.78940918 40.97083496 83.57881836 40.95581055 82.33154297 C40.89768315 77.82490019 40.8204511 73.31874951 40.73754883 68.8125 C40.70436735 66.86499032 40.67631443 64.91738603 40.65356445 62.96972656 C40.61989366 60.16430485 40.56757173 57.35974472 40.51171875 54.5546875 C40.50532883 53.68883026 40.4989389 52.82297302 40.49235535 51.93087769 C40.3712335 46.91080687 39.80415444 43.33967074 37 39 C33.28731769 37.14365884 29.05186745 37.55255451 25 38 C21.60183162 39.63840261 19.67713348 40.75351865 17.86962891 44.08081055 C16.67801974 48.08083044 16.64394366 51.86526374 16.5859375 56.01953125 C16.56657135 56.87810226 16.5472052 57.73667328 16.5272522 58.6212616 C16.46768444 61.35157474 16.42116266 64.08193057 16.375 66.8125 C16.33679921 68.66863773 16.29774625 70.52475812 16.2578125 72.38085938 C16.16200173 76.92043144 16.07788679 81.46008646 16 86 C10.72 86 5.44 86 0 86 C0 57.62 0 29.24 0 0 Z " fill="#1868AC" transform="translate(567,691)"/>
<path d="M0 0 C6.95502691 4.70304145 10.38732954 10.16198862 13 18 C13 23.28 13 28.56 13 34 C-0.86 34 -14.72 34 -29 34 C-27.03980592 43.34047655 -27.03980592 43.34047655 -23.4375 46.625 C-18.83812796 48.46474882 -14.8906192 48.69283772 -10 48 C-6.21634468 46.30596911 -6.21634468 46.30596911 -4 43 C1.28 43 6.56 43 12 43 C9.66801078 51.16196229 7.32525103 54.73554662 0.203125 58.9296875 C-8.56035725 63.18712391 -18.47595214 63.07392514 -27.578125 60.03515625 C-34.73622603 56.97564533 -39.7837864 52.09312225 -43 45 C-46.12661898 35.92731967 -46.9919226 23.11227868 -43.2265625 14.05078125 C-34.11520529 -1.18317588 -16.66415542 -9.05451219 0 0 Z " fill="#1868AD" transform="translate(706,717)"/>
<path d="M0 0 C5.00434323 4.77640213 7.65689555 10.42262014 8.17425537 17.32475281 C8.2303031 19.9882997 8.22499887 22.64462574 8.1953125 25.30859375 C8.1924826 26.27531509 8.18965271 27.24203644 8.18673706 28.23805237 C8.17560407 31.30466452 8.15051224 34.37097715 8.125 37.4375 C8.11496131 39.52538639 8.10583701 41.61327738 8.09765625 43.70117188 C8.07568727 48.80089544 8.04120507 53.90039705 8 59 C2.72 59 -2.56 59 -8 59 C-8.01458252 57.85523193 -8.02916504 56.71046387 -8.04418945 55.53100586 C-8.10240761 51.26100303 -8.17963828 46.99151462 -8.26245117 42.72192383 C-8.29559026 40.87825912 -8.32365613 39.03449564 -8.34643555 37.19067383 C-8.38018512 34.53163792 -8.43250966 31.87349813 -8.48828125 29.21484375 C-8.49467117 28.39789536 -8.5010611 27.58094696 -8.50764465 26.73924255 C-8.64154412 21.46096048 -9.46649608 17.66611568 -12 13 C-16.0443187 10.30378753 -19.25334654 10.45680902 -24 11 C-27.72210861 12.61830809 -29.89930441 14.53385228 -32 18 C-33.23158297 22.11385348 -33.22608414 26.22195532 -33.31640625 30.484375 C-33.33718735 31.29996887 -33.35796844 32.11556274 -33.37937927 32.95587158 C-33.44461297 35.55383105 -33.50363768 38.15188913 -33.5625 40.75 C-33.60571014 42.514333 -33.64932522 44.27865613 -33.69335938 46.04296875 C-33.80026745 50.36187884 -33.90160827 54.68088784 -34 59 C-38.95 59 -43.9 59 -49 59 C-49 38.54 -49 18.08 -49 -3 C-44.05 -3 -39.1 -3 -34 -3 C-33.67 -0.36 -33.34 2.28 -33 5 C-32.319375 4.071875 -31.63875 3.14375 -30.9375 2.1875 C-23.22226556 -6.90315228 -9.4921834 -5.9346926 0 0 Z " fill="#1767AC" transform="translate(276,718)"/>
<path d="M0 0 C12.38803835 -1.42938904 12.38803835 -1.42938904 18 0 C21.95328445 3.4305361 23.8012137 7.31761052 26 12 C27.27274026 14.04905423 28.62440073 16.01699326 30 18 C33.17767587 15.22216414 34.83251809 12.42776684 36.68969727 8.66845703 C38.41005231 5.36076192 40.06379827 2.3676768 43 0 C48.51618791 -1.71424551 54.38406851 -0.812408 60 0 C58.73462626 3.45619821 57.28395314 6.25579303 55.1015625 9.21484375 C54.53953125 9.98376953 53.9775 10.75269531 53.3984375 11.54492188 C52.81320312 12.33447266 52.22796875 13.12402344 51.625 13.9375 C49.91844336 16.25925507 48.21465087 18.58274341 46.52050781 20.91357422 C45.5790093 22.20548917 44.62716071 23.49001348 43.65917969 24.76220703 C41.53030461 27.52583898 41.53030461 27.52583898 41.20239258 30.85791016 C42.20125622 33.54050262 43.59905456 35.60899754 45.23828125 37.95703125 C45.89376953 38.90513672 46.54925781 39.85324219 47.22460938 40.83007812 C47.91361328 41.81427734 48.60261719 42.79847656 49.3125 43.8125 C57.54680352 55.63511086 57.54680352 55.63511086 61 62 C58.24835568 62.13517903 55.50335479 62.23415251 52.75 62.3125 C51.97269531 62.35439453 51.19539063 62.39628906 50.39453125 62.43945312 C44.61414436 62.56296567 44.61414436 62.56296567 41.75 59.9375 C41.1725 58.968125 40.595 57.99875 40 57 C39.21631538 55.81456789 38.4296888 54.63107712 37.640625 53.44921875 C36.84087187 52.19714623 36.04403196 50.94320852 35.25 49.6875 C34.63318359 48.71973633 34.63318359 48.71973633 34.00390625 47.73242188 C33.00003689 46.15658043 31.99965644 44.57851733 31 43 C27.39796433 46.24245208 25.40956849 48.99643786 23.27319336 53.41943359 C21.59086519 56.73449653 19.96599002 59.68232816 17 62 C11.15394474 63.72646661 4.94235497 62.80769873 -1 62 C3.11202977 55.3565019 7.42661919 48.94602761 12.06640625 42.66015625 C14.83337138 38.853483 17.43054348 34.94177989 20 31 C16.60245672 24.32207011 12.52570054 18.44592988 8.01049805 12.49389648 C4.98672787 8.47761133 2.41108702 4.41370754 0 0 Z " fill="#1767AC" transform="translate(427,715)"/>
<path d="M0 0 C5.61 0 11.22 0 17 0 C17 28.05 17 56.1 17 85 C11.39 85 5.78 85 0 85 C0 56.95 0 28.9 0 0 Z " fill="#186AAD" transform="translate(197,692)"/>
<path d="M0 0 C5.28 0 10.56 0 16 0 C16 28.71 16 57.42 16 87 C10.72 87 5.44 87 0 87 C0 58.29 0 29.58 0 0 Z " fill="#1A6BAE" transform="translate(729,690)"/>
<path d="M0 0 C1.875 1.1875 1.875 1.1875 3 3 C3.44697714 6.74609413 3.26159507 8.56300363 1.3046875 11.83203125 C0.10199219 13.30736328 0.10199219 13.30736328 -1.125 14.8125 C-1.56513428 15.36019043 -2.00526855 15.90788086 -2.45874023 16.47216797 C-3.95738765 18.32763619 -5.47779849 20.16381838 -7 22 C-8.15565963 23.41217828 -9.31058293 24.8249594 -10.46484375 26.23828125 C-13.42059707 29.84827246 -16.39510817 33.44232055 -19.37402344 37.03320312 C-22.35126165 40.63449908 -25.2903239 44.26682455 -28.23046875 47.8984375 C-32.45847098 52.91977348 -32.45847098 52.91977348 -36.375 53.5 C-40.86916588 52.88011505 -42.26171114 51.31868704 -45 48 C-46.45731132 46.41572595 -47.91575445 44.83249264 -49.375 43.25 C-50.92138354 41.50416666 -52.46311251 39.75419867 -54 38 C-54.70511719 37.21882813 -55.41023437 36.43765625 -56.13671875 35.6328125 C-59.14673009 32.10383369 -61.42746938 29.37489264 -61.6875 24.625 C-61 21 -61 21 -59.375 19 C-56.12441986 17.63133468 -54.50837126 17.31208407 -51 18 C-45.33525931 22.18981973 -41.17397172 28.40510174 -37 34 C-31.5045628 28.15886284 -26.28364172 22.21748181 -21.375 15.875 C-7.63544887 -1.86990585 -7.63544887 -1.86990585 0 0 Z " fill="#FBFCFD" transform="translate(703,394)"/>
<path d="M0 0 C5.28 0 10.56 0 16 0 C16 20.46 16 40.92 16 62 C10.72 62 5.44 62 0 62 C0 41.54 0 21.08 0 0 Z " fill="#1B6AAD" transform="translate(636,715)"/>
<path d="M0 0 C5.51970213 2.05635962 8.59900911 5.00218079 11.08984375 10.33203125 C13.28978798 16.7807948 12.68454503 24.06576426 9.984375 30.28125 C7.70041823 34.26911102 4.38849828 37.53716724 0 39 C-4.9784695 39.79202924 -8.1441497 38.36610366 -12.1640625 35.59375 C-16.31039771 31.99437816 -17.72722534 28.27312219 -18.375 22.875 C-18.62501988 16.12446315 -18.19653887 10.47843981 -14 5 C-9.27832267 0.61558533 -6.45823825 -0.43054922 0 0 Z " fill="#FBFCFD" transform="translate(398,727)"/>
<path d="M0 0 C5.51133253 2.05324153 8.57316524 4.99290738 11.08984375 10.296875 C13.02949119 16.05754465 13.02089404 23.22829949 10.8125 28.9375 C8.53872491 32.77939584 6.0511071 35.97444645 2 38 C-3.01187977 38.57325422 -8.28317469 39.17326753 -12.5 36 C-17.98585119 29.41697857 -18.51247157 23.33543247 -18.28125 14.9921875 C-17.77513139 9.60764784 -15.91683444 6.64144554 -11.9375 3.1875 C-7.60914291 -0.03574464 -5.42797066 -0.36186471 0 0 Z " fill="#FBFDFD" transform="translate(789,727)"/>
<path d="M0 0 C3.93710747 2.26884159 6.4126749 4.58766973 8.16796875 8.80859375 C9.91432918 15.50707485 10.26540434 23.14339369 7.375 29.5625 C5.16641842 33.18978849 2.94044519 35.24869103 -1 37 C-6.05609262 37.79052914 -9.81779171 37.5803568 -14.4375 35.3125 C-19.06614569 31.1354295 -20.70990552 27.13302039 -21.2734375 21.046875 C-21.50137563 13.64765267 -21.054579 8.61780351 -16 3 C-11.11455218 -1.45437889 -6.18581042 -1.66185952 0 0 Z " fill="#FBFDFD" transform="translate(332,728)"/>
<path d="M0 0 C3.087264 1.45504094 5.25281625 3.05506136 7 6 C7.33 8.64 7.66 11.28 8 14 C-0.91 14 -9.82 14 -19 14 C-17.937638 6.56346602 -17.71863669 5.83372539 -13 1 C-8.9912996 -1.0043502 -4.34792241 -0.61600551 0 0 Z " fill="#FAFCFD" transform="translate(696,726)"/>
<path d="M0 0 C5.28 0 10.56 0 16 0 C16 28.71 16 57.42 16 87 C10.72 87 5.44 87 0 87 C0 58.29 0 29.58 0 0 Z M2 2 C2 29.72 2 57.44 2 86 C6.29 86 10.58 86 15 86 C15 58.28 15 30.56 15 2 C10.71 2 6.42 2 2 2 Z " fill="#2264A9" transform="translate(729,690)"/>
<path d="M0 0 C2.9375 2.0625 2.9375 2.0625 5 5 C5.65622237 9.08316143 5.37781677 11.22793965 3.5625 14.9375 C0.29922849 17.5640356 -1.77068956 17.67360891 -5.87109375 17.41015625 C-8 17 -8 17 -10.5625 15.5 C-12.57641782 11.99753422 -12.87555677 8.87856287 -12 5 C-8.64524049 0.12034981 -5.82662873 -1.04046942 0 0 Z " fill="#1765AB" transform="translate(647,690)"/>
<path d="M0 0 C-1.58960332 6.23440168 -3.27600901 12.16287645 -6 18 C-6.66 17.67 -7.32 17.34 -8 17 C-6.02 12.05 -4.04 7.1 -2 2 C-3.32 2.33 -4.64 2.66 -6 3 C-12.41100824 3.33846938 -18.66130432 2.95678425 -25 2 C-25 1.67 -25 1.34 -25 1 C-21.20836402 0.8326303 -17.4166864 0.66622322 -13.625 0.5 C-12.54476562 0.45230469 -11.46453125 0.40460938 -10.3515625 0.35546875 C-9.3203125 0.31035156 -8.2890625 0.26523437 -7.2265625 0.21875 C-6.27346191 0.17685547 -5.32036133 0.13496094 -4.33837891 0.09179688 C-2.89304218 0.03505783 -1.44644999 0 0 0 Z " fill="#0956A3" transform="translate(688,488)"/>
<path d="M0 0 C0.66 0.33 1.32 0.66 2 1 C-2.27848493 6.24114404 -6.81251589 10.66680395 -12 15 C-12.6084375 15.51175781 -13.216875 16.02351563 -13.84375 16.55078125 C-15.22414924 17.70654005 -16.61125376 18.85428435 -18 20 C-18.66 19.67 -19.32 19.34 -20 19 C-13.52848604 12.43141333 -7.08470943 5.91781611 0 0 Z " fill="#105BA6" transform="translate(580,390)"/>
<path d="M0 0 C0.33 0.99 0.66 1.98 1 3 C-5.93 9.435 -5.93 9.435 -13 16 C-13 13 -13 13 -11.80664062 11.46606445 C-11.26201172 10.937146 -10.71738281 10.40822754 -10.15625 9.86328125 C-9.56972656 9.28642578 -8.98320312 8.70957031 -8.37890625 8.11523438 C-7.75886719 7.52033203 -7.13882812 6.92542969 -6.5 6.3125 C-5.87996094 5.70599609 -5.25992187 5.09949219 -4.62109375 4.47460938 C-3.08735293 2.97626257 -1.54451802 1.48723507 0 0 Z " fill="#0953A1" transform="translate(406,469)"/>
<path d="M0 0 C0.66 0 1.32 0 2 0 C0.91755848 2.43549343 -0.18583605 4.21580961 -1.9375 6.25 C-4.52422604 9.69896805 -5.61871936 12.9252221 -7 17 C-7.33 17 -7.66 17 -8 17 C-7.71379038 10.27407402 -4.7896613 4.7896613 0 0 Z " fill="#0E59A5" transform="translate(373,722)"/>
<path d="M0 0 C0.66 0.66 1.32 1.32 2 2 C-0.97 4.97 -3.94 7.94 -7 11 C-7.33 10.34 -7.66 9.68 -8 9 C-6.85459775 7.68712379 -5.70866567 6.37470979 -4.5625 5.0625 C-3.92441406 4.33160156 -3.28632812 3.60070312 -2.62890625 2.84765625 C-1.77458541 1.87860647 -0.91348825 0.91348825 0 0 Z " fill="#0D5CA6" transform="translate(673,719)"/>
<path d="M0 0 C0.33 0.99 0.66 1.98 1 3 C-0.65 4.32 -2.3 5.64 -4 7 C-3.43628586 3.73045798 -2.50037734 2.17424117 0 0 Z " fill="#0F5CA7" transform="translate(406,469)"/>
<path d="M0 0 C0.66 0.66 1.32 1.32 2 2 C-1.465 4.97 -1.465 4.97 -5 8 C-3.8141763 4.62496331 -2.72426311 2.35277269 0 0 Z " fill="#0B59A5" transform="translate(141,155)"/>
</svg>
